<svg xmlns="http://www.w3.org/2000/svg" width="90" height="90">
    <path fill="#777" fill-rule="evenodd" d="M82.969 64.512H90c0-12.021-4.681-23.321-13.18-31.82-5.988-5.989-13.368-10.078-21.41-11.974.937-.086 1.879-.139 2.825-.153 9.781-.149 19.245 3.636 26.646 10.64l4.833-5.106c-4.35-4.118-9.335-7.302-14.815-9.467-5.416-2.139-11.056-3.178-16.767-3.097-5.69.084-11.281 1.285-16.617 3.567-1.883.806-3.701 1.737-5.453 2.782 6.963-7.876 17.135-12.852 28.45-12.852V0c-12.02 0-23.321 4.681-31.82 13.18-5.852 5.851-9.893 13.032-11.843 20.859-.062-.818-.099-1.642-.107-2.471-.094-9.843 3.633-19.247 10.493-26.481L26.134.249c-8.123 8.563-12.535 19.71-12.423 31.388.076 7.964 2.251 15.63 6.251 22.369C12.04 47.042 7.031 36.84 7.031 25.489H0c0 12.019 4.681 23.32 13.18 31.82 5.852 5.851 13.032 9.892 20.86 11.842-.913.07-1.834.105-2.758.106h-.078c-9.641 0-18.867-3.679-25.984-10.367L.405 64.013c8.427 7.919 19.361 12.276 30.798 12.276h.093c8.089-.016 15.873-2.191 22.707-6.247-6.964 7.92-17.165 12.927-28.515 12.927V90c12.02 0 23.321-4.681 31.82-13.18 5.852-5.853 9.893-13.032 11.843-20.86.061.807.099 1.62.107 2.436.103 9.871-3.633 19.299-10.521 26.546l5.096 4.844c8.155-8.58 12.578-19.754 12.456-31.464-.084-7.949-2.258-15.601-6.252-22.328 7.923 6.964 12.932 17.166 12.932 28.518zM45 63.457c-10.177 0-18.457-8.279-18.457-18.457S34.823 26.543 45 26.543c10.177 0 18.457 8.279 18.457 18.457S55.177 63.457 45 63.457z"/>
</svg>
