<svg xmlns="http://www.w3.org/2000/svg" width="60" height="60">
    <path fill="#777" fill-rule="evenodd" d="M24.727 0c-3.878 0-7.032 3.154-7.032 7.031v3.281c0 3.878 3.154 7.032 7.032 7.032 3.877 0 7.031-3.154 7.031-7.032V7.031C31.758 3.154 28.604 0 24.727 0zm2.343 10.312c0 1.292-1.051 2.345-2.343 2.345-1.293 0-2.344-1.053-2.344-2.345V7.031c0-1.292 1.051-2.343 2.344-2.343 1.292 0 2.343 1.051 2.343 2.343v3.281zM14.063 17.11H9.375V.234h4.688V17.11zm-9.375 0H0V.234h4.688V17.11zm2.343 25.546C3.154 42.656 0 45.81 0 49.688v3.28c0 3.878 3.154 7.033 7.031 7.033 3.878 0 7.032-3.155 7.032-7.033v-3.28c0-3.878-3.154-7.032-7.032-7.032zm2.344 10.312c0 1.293-1.051 2.344-2.344 2.344-1.292 0-2.343-1.051-2.343-2.344v-3.28c0-1.293 1.051-2.344 2.343-2.344 1.293 0 2.344 1.051 2.344 2.344v3.28zm8.32-10.077h4.688v16.875h-4.688V42.891zm9.375 0h4.688v16.875H27.07V42.891zM15.703 21.446c-3.877 0-7.031 3.153-7.031 7.031v3.281c0 3.876 3.154 7.031 7.031 7.031s7.031-3.155 7.031-7.031v-3.281c0-3.878-3.154-7.031-7.031-7.031zm2.344 10.312c0 1.292-1.052 2.344-2.344 2.344-1.292 0-2.344-1.052-2.344-2.344v-3.281c0-1.293 1.052-2.345 2.344-2.345 1.292 0 2.344 1.052 2.344 2.345v3.281zm13.594 6.796h-4.688V21.679h4.688v16.875zm-26.953 0H0V21.679h4.688v16.875zM60 30.118c0 2.264-1.837 4.101-4.102 4.101-1.341 0-2.532-.644-3.281-1.641H36.328V27.89h16.127c.73-1.127 1.999-1.874 3.443-1.874 2.265 0 4.102 1.836 4.102 4.102zM42.656 11.016h-6.328V6.328h11.016v8.203h5.111c.73-1.128 1.999-1.874 3.443-1.874 2.265 0 4.102 1.836 4.102 4.101 0 2.265-1.837 4.102-4.102 4.102-1.341 0-2.532-.645-3.281-1.641h-9.961v-8.203zM60 43.242c0 2.266-1.837 4.102-4.102 4.102-1.444 0-2.713-.747-3.443-1.876h-5.111v8.204H36.328v-4.687h6.328v-8.204h9.961c.749-.996 1.94-1.641 3.281-1.641 2.265 0 4.102 1.837 4.102 4.102z"/>
</svg>
