<svg xmlns="http://www.w3.org/2000/svg" width="60" height="60">
    <path fill="#777" fill-rule="evenodd" d="M59.795 27.316C58.568 13.093 46.893 1.445 32.637.221c-4.023-.345-8.002.105-11.732 1.273-.561.138-1.125.293-1.693.471l.032.103C15.343 3.546 11.759 5.83 8.746 8.836 3.156 14.413.051 21.944 0 29.838v.005c-.006.939.029 1.883.111 2.83 1.226 14.223 12.902 25.873 27.157 27.096.886.075 1.768.114 2.646.114 7.983 0 15.61-3.107 21.246-8.73 4.602-4.591 7.519-10.507 8.436-16.86l.011-.047-.004-.001c.323-2.269.394-4.591.192-6.929zm-6.503-7.004c-.79-.275-2.231-1.243-4.546-4.852l-.008-.013c-1.697-2.61-3.503-4.888-5.398-6.82 4.402 2.773 7.919 6.866 9.952 11.685zM27.67 55.117c-9.038-.776-16.845-6.524-20.602-14.426-.299-1.714.017-3.333.869-4.382.635-.781 1.491-1.177 2.545-1.177h.029c2.552.018 5.757 2.312 8.794 6.299 3.039 3.976 6.428 7.031 10.072 9.078 3.217 1.808 6.549 2.794 9.913 2.937-3.628 1.424-7.597 2.016-11.62 1.671zm12.262-6.324c-5.938-.081-11.942-3.701-16.903-10.191-5.097-6.692-9.603-8.12-12.486-8.139-2.217-.014-4.221.804-5.719 2.324-.018-.171-.035-.342-.05-.514-.064-.745-.095-1.487-.095-2.226.394-5.407 3.981-9.351 8.561-9.394h.076c4.736 0 9.946 3.949 14.677 11.119 7.198 11.012 14.748 12.702 18.696 12.702l.139-.001c1.481-.016 2.906-.267 4.237-.717-2.76 3.264-6.802 5.099-11.133 5.037zm15.059-15.364c-.889 3.721-4.239 6.334-8.21 6.374h-.098c-4.992 0-10.369-3.851-14.775-10.591-2.929-4.439-6.074-7.826-9.349-10.066-3.108-2.126-6.259-3.189-9.362-3.162-1.744.015-3.428.389-4.98 1.088.615-1.035 1.306-2.027 2.07-2.97 3.374-2.911 6.649-4.399 9.737-4.423h.08c5.536 0 11.045 4.539 16.373 13.491l.034.058c5.654 8.916 11.062 10.824 14.604 10.853l.082.001c1.3 0 2.584-.26 3.809-.756l-.015.103zm-3.794-4.018h-.043c-3.354-.028-7.143-3.101-10.669-8.653C35.467 12.335 30.04 7.26 24.304 5.607c.656-.081 1.299-.126 1.925-.131l.148-.001c6.832 0 13.032 4.208 18.43 12.508 3.054 4.759 5.667 6.883 8.735 7.102.147.011.292.015.436.015.263 0 .52-.016.773-.045.175.873.303 1.761.381 2.662l.008.113c-.908.765-2.268 1.581-3.943 1.581z"/>
</svg>
