<svg xmlns="http://www.w3.org/2000/svg" width="60" height="60">
    <path fill="#777" fill-rule="evenodd" d="M60 5.839L44.238-.002 28.477 5.839v20.012l13.476 4.994v6.474l-5.742 2.234v5.033l10.43-4.059v-9.726L60 25.851V5.839zm-9.092 1.632l-6.67 2.472-6.669-2.472 6.669-2.472 6.67 2.472zM33.164 22.587V10.841l8.789 3.256v11.747l-8.789-3.257zM46.641 25.8V14.054l8.672-3.213v11.746L46.641 25.8zm-28.477-3.085l5.625-2.149v-5.022l-10.312 3.942v9.664L0 34.144v20.013l15.762 5.84 15.761-5.84V34.144l-13.359-4.95v-6.479zm-2.402 15.533l-6.67-2.472 6.67-2.472 6.669 2.472-6.669 2.472zm-11.074.898l8.789 3.257V54.15l-8.789-3.257V39.146zm13.476 14.96V42.359l8.672-3.213v11.747l-8.672 3.213z"/>
</svg>
