<svg xmlns="http://www.w3.org/2000/svg" width="91" height="91">
    <path fill="#777" fill-rule="evenodd" d="M31.381 45.808c0 7.782 6.327 14.114 14.103 14.114s14.102-6.332 14.102-14.114c0-7.781-6.326-14.113-14.102-14.113-7.776 0-14.103 6.332-14.103 14.113zm21.154 0c0 3.891-3.163 7.057-7.051 7.057-3.888 0-7.052-3.166-7.052-7.057 0-3.891 3.164-7.057 7.052-7.057 3.888 0 7.051 3.166 7.051 7.057zm27.5-10.584c-5.832 0-10.577 4.748-10.577 10.584 0 5.837 4.745 10.585 10.577 10.585s10.577-4.748 10.577-10.585c0-5.836-4.745-10.584-10.577-10.584zm0 14.112c-1.944 0-3.526-1.582-3.526-3.528 0-1.945 1.582-3.528 3.526-3.528 1.944 0 3.525 1.583 3.525 3.528 0 1.946-1.581 3.528-3.525 3.528zM10.932 35.224C5.101 35.224.356 39.972.356 45.808c0 5.837 4.745 10.585 10.576 10.585 5.833 0 10.578-4.748 10.578-10.585 0-5.836-4.745-10.584-10.578-10.584zm0 14.112c-1.943 0-3.525-1.582-3.525-3.528 0-1.945 1.582-3.528 3.525-3.528 1.945 0 3.526 1.583 3.526 3.528 0 1.946-1.581 3.528-3.526 3.528zM1.543 30.884c-2.556-10.412-1-19.045 4.499-24.547C12.123.252 22.027-1.011 33.933 2.783c3.802 1.212 7.682 2.9 11.55 5.006 3.87-2.106 7.75-3.794 11.551-5.006C68.94-1.01 78.844.252 84.925 6.337c5.499 5.502 7.055 14.135 4.499 24.547-1.988-1.258-4.243-2.128-6.66-2.506.713-3.221.953-6.232.691-8.85-.345-3.452-1.528-6.212-3.516-8.202-1.988-1.989-4.746-3.173-8.196-3.518-.689-.069-1.406-.104-2.146-.104-3.129 0-6.687.612-10.423 1.803-2.182.696-4.397 1.569-6.624 2.607 5.016 3.408 9.923 7.477 14.527 12.084 1.86 1.861 3.63 3.772 5.306 5.719-2.151 1.042-4.059 2.508-5.616 4.29-1.481-1.705-3.039-3.382-4.676-5.019-5.254-5.258-10.903-9.749-16.608-13.253-5.704 3.504-11.352 7.994-16.607 13.253-1.636 1.637-3.196 3.314-4.677 5.017-1.557-1.781-3.465-3.247-5.615-4.288 1.676-1.948 3.447-3.858 5.306-5.72 4.604-4.606 9.511-8.675 14.527-12.083-2.227-1.038-4.442-1.912-6.624-2.607-4.62-1.473-8.966-2.06-12.569-1.699-3.45.345-6.208 1.529-8.196 3.518-1.988 1.991-3.171 4.75-3.516 8.202-.262 2.618-.021 5.629.692 8.85-2.417.378-4.673 1.249-6.661 2.506zm87.882 29.848c2.555 10.413.999 19.045-4.499 24.548-3.78 3.782-9.037 5.701-15.331 5.701-3.836 0-8.054-.711-12.561-2.148-3.801-1.212-7.681-2.9-11.55-5.007-3.869 2.107-7.749 3.795-11.551 5.007-4.505 1.436-8.725 2.148-12.56 2.148-6.296 0-11.552-1.919-15.331-5.701-5.499-5.503-7.055-14.135-4.499-24.548 1.988 1.257 4.244 2.13 6.661 2.506-.713 3.223-.954 6.232-.692 8.849.345 3.454 1.528 6.214 3.516 8.203 1.988 1.991 4.746 3.174 8.196 3.519 3.603.36 7.949-.228 12.569-1.7 2.183-.695 4.397-1.568 6.624-2.607-5.016-3.408-9.923-7.476-14.527-12.084-1.859-1.861-3.63-3.772-5.306-5.719 2.151-1.041 4.059-2.507 5.616-4.287 1.481 1.702 3.04 3.379 4.676 5.016 5.255 5.258 10.903 9.749 16.608 13.253 5.704-3.504 11.353-7.994 16.607-13.253 1.637-1.637 3.196-3.314 4.676-5.017 1.558 1.781 3.465 3.247 5.616 4.288-1.676 1.947-3.446 3.858-5.306 5.72-4.603 4.607-9.511 8.675-14.527 12.083 2.228 1.039 4.442 1.912 6.624 2.607 4.621 1.473 8.967 2.06 12.57 1.7 3.449-.345 6.207-1.528 8.196-3.519 1.987-1.989 3.171-4.749 3.516-8.203.261-2.617.021-5.626-.692-8.849 2.417-.377 4.672-1.249 6.661-2.506z"/>
</svg>
