<svg xmlns="http://www.w3.org/2000/svg" width="45" height="38">
    <path fill="#777" fill-rule="evenodd" d="M43.935 3.842l-7.732 31.864c-.211.87-.859 1.561-1.733 1.848-.282.093-.571.138-.858.138-.602 0-1.193-.199-1.677-.583l-8.301-6.585-7.02 5.095 2.924-10.242L33.8 10.923c.441-.447.479-1.141.089-1.631s-1.091-.631-1.65-.329L9.363 21.268l-7.77-3.294c-1.017-.432-1.641-1.405-1.588-2.48.052-1.075.767-1.988 1.821-2.325L40.518.807c.912-.291 1.918-.083 2.626.547.708.629 1.011 1.582.791 2.488zM17.446 23.873c-.148.149-.255.333-.311.532l-3.061 10.718-2.687-12.079 14.656-7.884-8.597 8.713z"/>
</svg>
